<svg width="25" height="25" viewBox="0 0 25 25" fill="none" xmlns="http://www.w3.org/2000/svg">
<rect width="25" height="25" fill="white"/>
<path d="M5.648 14.148H8.24V15.96H2L4.904 11.616H2.396V9.804H8.528L5.648 14.148Z" fill="black"/>
<path d="M10.3984 6V12.024L12.6784 9.804H15.6544L12.5704 12.648L15.8344 15.96H12.7864L10.3984 13.452V15.96H8.22641V6H10.3984Z" fill="black"/>
<path d="M20.4333 12.9C20.4333 12.708 20.3973 12.528 20.3253 12.36C20.2613 12.184 20.1653 12.032 20.0373 11.904C19.9093 11.776 19.7573 11.676 19.5813 11.604C19.4133 11.524 19.2293 11.484 19.0293 11.484C18.8373 11.484 18.6573 11.52 18.4893 11.592C18.3213 11.664 18.1733 11.764 18.0453 11.892C17.9253 12.02 17.8253 12.172 17.7453 12.348C17.6733 12.516 17.6373 12.696 17.6373 12.888C17.6373 13.08 17.6733 13.26 17.7453 13.428C17.8173 13.596 17.9173 13.744 18.0453 13.872C18.1733 13.992 18.3213 14.092 18.4893 14.172C18.6653 14.244 18.8493 14.28 19.0413 14.28C19.2333 14.28 19.4133 14.244 19.5813 14.172C19.7493 14.1 19.8933 14 20.0133 13.872C20.1413 13.744 20.2413 13.596 20.3133 13.428C20.3933 13.26 20.4333 13.084 20.4333 12.9ZM17.6973 19.032H15.5253V9.804H17.6973V10.488C18.1613 9.904 18.7933 9.612 19.5933 9.612C20.0333 9.612 20.4413 9.7 20.8173 9.876C21.2013 10.044 21.5333 10.276 21.8133 10.572C22.0933 10.868 22.3093 11.216 22.4613 11.616C22.6213 12.016 22.7013 12.444 22.7013 12.9C22.7013 13.356 22.6213 13.78 22.4613 14.172C22.3093 14.564 22.0933 14.908 21.8133 15.204C21.5413 15.5 21.2173 15.732 20.8413 15.9C20.4653 16.068 20.0573 16.152 19.6173 16.152C18.8493 16.152 18.2093 15.888 17.6973 15.36V19.032Z" fill="black"/>
</svg>
